<svg xmlns="http://www.w3.org/2000/svg" viewBox="0 0 129.35 149.36"><defs><style>.cls-1{fill:#2f2d2b;}.cls-2,.cls-4{fill:none;}.cls-2,.cls-4,.cls-6{stroke:#ddb281;stroke-miterlimit:10;}.cls-2{stroke-width:0.5px;}.cls-3{font-size:8.05px;font-family:MicrosoftJhengHeiLight, Microsoft JhengHei;letter-spacing:0.8em;}.cls-3,.cls-5,.cls-6,.cls-7{fill:#ddb281;}.cls-4{stroke-width:3px;}.cls-6{stroke-width:0.25px;}.cls-7{font-size:7.92px;font-family:TwCenMT-Regular, Tw Cen MT;}.cls-8{letter-spacing:-0.08em;}</style></defs><title>2年保固-黑</title><g id="圖層_2" data-name="圖層 2"><g id="圖層_1-2" data-name="圖層 1"><polygon class="cls-1" points="129.35 112.02 129.35 37.34 64.67 0 0 37.34 0 112.02 64.67 149.36 129.35 112.02"/><polygon class="cls-2" points="125.11 109.57 125.11 39.79 64.67 4.9 4.24 39.79 4.24 109.57 64.67 144.46 125.11 109.57"/><text class="cls-3" transform="translate(39.99 107.88)">兩年保固</text><path class="cls-4" d="M37.53,37.28s26.19-9.29,54.28,0V66.64s.74,16.21-26.29,29.45c0,0-22.18-8.3-27.67-27.08Z"/><path class="cls-5" d="M65.17,36.55V93.69s-24-12.27-24-27.29V39.55S55,35.49,65.17,36.55Z"/><path class="cls-1" d="M66.85,43a11.69,11.69,0,0,1,6.74,2.16c7.29,5.66,1.85,12.79,1.85,12.79L63.89,71.8H77.65v5H56V72.27l.21-.24q4.56-5.36,9.14-10.69c1.12-1.32,1.9-2.06,3-3.44,1.36-1.69,2.08-2.53,2.08-3.86a4.29,4.29,0,1,0-8.58,0,4.17,4.17,0,0,0,.06.71h-7a13.33,13.33,0,0,1,4.75-9.36A12.4,12.4,0,0,1,66.85,43m0-.5v0A13,13,0,0,0,59.34,45a13.72,13.72,0,0,0-5,9.74l0,.53h8.1l-.1-.58A3.62,3.62,0,0,1,62.3,54a3.79,3.79,0,1,1,7.58,0c0,1.1-.56,1.8-1.79,3.34l-.18.21c-.64.81-1.17,1.4-1.74,2-.38.42-.78.86-1.24,1.4l-4.57,5.35L55.79,71.7l-.21.25-.12.14V77.3H78.15v-6H65L75.82,58.22c.08-.09,5.67-7.61-1.92-13.51a12.11,12.11,0,0,0-7.05-2.26Z"/><path class="cls-5" d="M65.12,49.86a4.37,4.37,0,0,1,1-.11A4.29,4.29,0,0,1,70.38,54c0,1.33-.72,2.17-2.08,3.86-1.09,1.38-1.87,2.12-3,3.44l-.19.22v8.76L75.44,57.9s5.44-7.13-1.85-12.79a11.65,11.65,0,0,0-8.47-2Z"/><rect class="cls-5" x="65.12" y="71.8" width="12.53" height="5.01"/><polygon class="cls-6" points="83.58 94.79 83.58 95.03 107.86 95.03 107.86 112.57 22.96 112.57 22.96 95.03 47.24 95.03 47.24 94.79 22.65 94.79 22.65 112.81 108.16 112.81 108.16 94.79 83.58 94.79"/><text class="cls-7" transform="translate(66.48 83.35)"><tspan class="cls-8">Y</tspan><tspan x="3.74" y="0">ear</tspan></text></g></g></svg>