<svg xmlns="http://www.w3.org/2000/svg" viewBox="0 0 129.35 149.36"><defs><style>.cls-1,.cls-9{fill:#2f2d2b;}.cls-2,.cls-6,.cls-7,.cls-8{fill:none;}.cls-2,.cls-3{stroke:#ddb281;}.cls-2,.cls-3,.cls-6,.cls-7,.cls-8{stroke-miterlimit:10;}.cls-2,.cls-7{stroke-width:0.5px;}.cls-3,.cls-4,.cls-5{fill:#ddb281;}.cls-3,.cls-8{stroke-width:0.25px;}.cls-4{font-size:8.05px;font-family:MicrosoftJhengHeiLight, Microsoft JhengHei;letter-spacing:0.8em;}.cls-6,.cls-7,.cls-8{stroke:#2f2d2b;}.cls-9{font-size:9.15px;font-family:FrenchScriptMT, French Script MT;}</style></defs><title>德國工藝icon-黑_1</title><g id="圖層_2" data-name="圖層 2"><g id="圖層_1-2" data-name="圖層 1"><polygon class="cls-1" points="129.35 112.02 129.35 37.34 64.67 0 0 37.34 0 112.02 64.67 149.36 129.35 112.02"/><polygon class="cls-2" points="125.11 109.57 125.11 39.79 64.67 4.9 4.24 39.79 4.24 109.57 64.67 144.46 125.11 109.57"/><polygon class="cls-3" points="82.84 94.79 82.84 95.03 107.12 95.03 107.12 112.57 22.23 112.57 22.23 95.03 46.5 95.03 46.5 94.79 21.92 94.79 21.92 112.81 107.43 112.81 107.43 94.79 82.84 94.79"/><text class="cls-4" transform="translate(35.7 107.37)">德國工藝</text><polyline class="cls-5" points="34.87 35.82 83.28 35.82 86.21 39.13 86.21 47.39 34.87 47.39 34.87 37.47"/><rect class="cls-5" x="39.92" y="47.39" width="19.84" height="28.11"/><rect class="cls-5" x="34.96" y="75.5" width="57.87" height="9.92"/><rect class="cls-5" x="66.37" y="68.89" width="28.11" height="1.65"/><rect class="cls-5" x="68.03" y="68.89" width="21.49" height="6.61"/><rect class="cls-5" x="72.99" y="47.39" width="13.23" height="3.31"/><rect class="cls-2" x="74.64" y="50.7" width="9.92" height="1.65"/><rect class="cls-5" x="77.95" y="52.35" width="4.96" height="3.31"/><polygon class="cls-5" points="79.6 55.66 79.6 63.93 80.75 65.08 81.33 64.5 81.33 55.66 79.6 55.66"/><line class="cls-6" x1="43.3" y1="50.87" x2="43.3" y2="71.94"/><line class="cls-7" x1="45.4" y1="50.87" x2="45.4" y2="71.94"/><rect class="cls-8" x="46.67" y="50.87" width="3.37" height="1.69"/><rect class="cls-8" x="46.67" y="54.24" width="3.37" height="1.69"/><rect class="cls-8" x="46.67" y="57.61" width="3.37" height="1.69"/><text class="cls-9" transform="translate(55.81 44.61)">Germany</text><polygon class="cls-1" points="79.6 62.08 81.35 63.83 81.35 63.33 79.61 61.58 79.6 62.08"/><polygon class="cls-1" points="79.6 60.08 81.35 61.83 81.35 61.33 79.61 59.58 79.6 60.08"/></g></g></svg>