<svg xmlns="http://www.w3.org/2000/svg" viewBox="0 0 129.35 149.36"><defs><style>.cls-1{fill:#2f2d2b;}.cls-2,.cls-5,.cls-7{fill:none;}.cls-2,.cls-4,.cls-5{stroke:#ddb281;}.cls-2,.cls-4,.cls-5,.cls-7{stroke-miterlimit:10;}.cls-2{stroke-width:0.5px;}.cls-3{font-size:8.05px;font-family:MicrosoftJhengHeiLight, Microsoft JhengHei;letter-spacing:0.8em;}.cls-3,.cls-4,.cls-6{fill:#ddb281;}.cls-4,.cls-5,.cls-7{stroke-width:0.25px;}.cls-7{stroke:#2f2d2b;}</style></defs><title>出色音質-黑</title><g id="圖層_2" data-name="圖層 2"><g id="圖層_1-2" data-name="圖層 1"><polygon class="cls-1" points="129.35 112.02 129.35 37.34 64.67 0 0 37.34 0 112.02 64.67 149.36 129.35 112.02"/><polygon class="cls-2" points="125.11 109.57 125.11 39.79 64.67 4.9 4.24 39.79 4.24 109.57 64.67 144.46 125.11 109.57"/><text class="cls-3" transform="translate(39.99 107.88)">出色音質</text><polygon class="cls-4" points="83.58 94.79 83.58 95.03 107.86 95.03 107.86 112.57 22.96 112.57 22.96 95.03 47.24 95.03 47.24 94.79 22.65 94.79 22.65 112.81 108.16 112.81 108.16 94.79 83.58 94.79"/><circle class="cls-5" cx="66.06" cy="51.78" r="21.19"/><circle class="cls-5" cx="86.64" cy="72.35" r="7.73"/><circle class="cls-5" cx="63.59" cy="78.38" r="15.93"/><circle class="cls-5" cx="57.71" cy="45.9" r="10.98"/><path class="cls-6" d="M49.2,52.55a11,11,0,0,1-3-4.55,11.24,11.24,0,0,1-.46-5.83,15.64,15.64,0,0,1,.85-2.91A21,21,0,0,1,48,36.59a8.18,8.18,0,0,1,1.94-2.27c.37-.32.75-.64,1.14-.93a13.89,13.89,0,0,1,1.17-.89,23.6,23.6,0,0,1,10.85-4.09c1-.07,1.92-.14,2.88-.17s1.91.05,2.85.13l2.81.37a13.85,13.85,0,0,1,1.55.4c.47.15,1,.29,1.4.48A23.33,23.33,0,0,1,84,36.3a24.24,24.24,0,0,1,5.14,10.31l.51,2.75a6.41,6.41,0,0,1,.12.76c0,.27.06.53.07.79,0,.51,0,1,0,1.5A22.69,22.69,0,0,1,89,58.22a23.86,23.86,0,0,1-2.31,5.37,26.84,26.84,0,0,1-3.51,4.61l-.28.26-.26.25c-.12.13-.23.26-.34.4a5.56,5.56,0,0,0-.55.9,5,5,0,0,0-.51,2,6.14,6.14,0,0,0,.32,2.23,13.51,13.51,0,0,1,.37,1.88c.07.6.11,1.19.13,1.79a17.81,17.81,0,0,1-5,13,11.34,11.34,0,0,1-1.29,1.21c-.45.37-.88.78-1.36,1.11a28.67,28.67,0,0,1-2.93,1.83,14.31,14.31,0,0,1-1.55.81l-.21.07-.11,0-.22.07-.47.09c-.31.06-.61.1-.9.13a19.49,19.49,0,0,1-3.49.11A15.81,15.81,0,0,1,58,94.63a13.31,13.31,0,0,1-4.77-4.33,14.14,14.14,0,0,0,5.47,2.43,14.87,14.87,0,0,0,5.61-.12,16,16,0,0,0,2.62-.83,3.51,3.51,0,0,0,1-.54,7.57,7.57,0,0,1,1.21-.6l.61-.29c.2-.1.38-.24.57-.36l1.14-.75c.37-.25.68-.57,1-.85a6.86,6.86,0,0,0,1-.9,12.8,12.8,0,0,0,3.61-9.43c0-.44,0-.87-.1-1.3a8.75,8.75,0,0,0-.22-1.15,11.15,11.15,0,0,1-.51-3.86,10.27,10.27,0,0,1,1-4,10.52,10.52,0,0,1,1.07-1.72c.2-.27.43-.53.66-.79s.24-.25.38-.37a4.73,4.73,0,0,1,.48-.43l-.28.25c4.33-4.47,6.43-11,4.72-17a19.26,19.26,0,0,0-4.08-8.24l-.76-.86-.84-.79a6.81,6.81,0,0,0-.87-.74c-.31-.23-.6-.48-.91-.7a19.6,19.6,0,0,0-4.07-2.16c-.35-.15-.72-.25-1.07-.37s-.76-.22-1-.26l-2.38-.31c-.79-.06-1.58-.07-2.37-.11s-1.56.09-2.34.14a20.15,20.15,0,0,0-4.49,1.08,16.58,16.58,0,0,0-4,2.12,8.7,8.7,0,0,0-.91.69,7.67,7.67,0,0,0-.84.77,14.88,14.88,0,0,1-1.64,1.54,18.23,18.23,0,0,0-1.54,1.67,11.7,11.7,0,0,0-1.2,1.9A10.41,10.41,0,0,0,49.2,52.55Z"/><polygon class="cls-6" points="66.9 58.76 59.49 54.71 52.28 59.1 52.48 67.54 59.88 71.59 67.09 67.2 66.9 58.76"/><polygon class="cls-7" points="65.21 59.79 59.54 56.68 54.01 60.05 54.16 66.52 59.84 69.62 65.36 66.25 65.21 59.79"/><ellipse class="cls-1" cx="58.71" cy="64.39" rx="1.52" ry="1.25" transform="translate(-23.31 34.97) rotate(-27.91)"/><path class="cls-1" d="M59.87,64.51c-.07-.74-.13-1.48-.16-2.22s0-1.48-.05-2.23v-.37l.34.17,1,.54.52.28a.81.81,0,0,1,.37,1.21l-.29.51-.62,1h0l.52-1.06c.13-.35.46-.69.33-1.07s-.59-.46-.91-.66l-1-.52,0,0v4.45Z"/><path class="cls-6" d="M62.67,76.19a4.67,4.67,0,0,0-2.39,1,3.48,3.48,0,0,0-1.27,2,3.32,3.32,0,0,0,.33,2.19,3,3,0,0,0,1.43,1.46,3.87,3.87,0,0,0,2,.25,5.21,5.21,0,0,0,2.07-.84,5.33,5.33,0,0,0,1.56-1.58,6.57,6.57,0,0,0,.76-2.17A13.36,13.36,0,0,0,67.3,76c0-.43,0-.86,0-1.3l0-.69a7.19,7.19,0,0,1,0-.81,10.66,10.66,0,0,1,2.51-5.25c.54-.72,1.09-1.41,1.55-2.09a15.1,15.1,0,0,0,1.18-2.21,10.87,10.87,0,0,0,1-4.74A5.2,5.2,0,0,0,71.46,55a10.15,10.15,0,0,0-4.52-1.71c-.85-.16-1.74-.3-2.65-.49a10.62,10.62,0,0,1-2.79-.89A7.18,7.18,0,0,1,59.08,50,5,5,0,0,1,58,46.91a6.48,6.48,0,0,1,3.23-5.17,12.26,12.26,0,0,1,5.54-1.63,24.17,24.17,0,0,1,2.82,0,5.51,5.51,0,0,1,1.39.21,10.42,10.42,0,0,1,1.41.45,4.53,4.53,0,0,1,1.33.84,6.74,6.74,0,0,1,.91,1.15c.5.76.92,1.55,1.41,2.32-.69-.59-1.37-1.21-2-1.81a5.1,5.1,0,0,0-1-.74A3,3,0,0,0,72,42.19c-.76-.13-1.66,0-2.51-.09a15.27,15.27,0,0,0-2.53,0,10.53,10.53,0,0,0-4.65,1.33A5.12,5.12,0,0,0,60.66,45a3.68,3.68,0,0,0-.68,2,3.81,3.81,0,0,0,2.42,3.21,20.14,20.14,0,0,0,4.92,1.21,18.83,18.83,0,0,1,2.73.69,8.7,8.7,0,0,1,2.65,1.41,7.19,7.19,0,0,1,2.81,5.31,12.68,12.68,0,0,1-1.15,5.66A17.23,17.23,0,0,1,73,66.93c-.53.81-1.1,1.51-1.63,2.21a8.86,8.86,0,0,0-2.12,4.27c0,.18,0,.35,0,.53l0,.65c0,.45,0,.91,0,1.37a15.42,15.42,0,0,1-.2,2.85,8.4,8.4,0,0,1-1,2.86,7.35,7.35,0,0,1-2.16,2.21A7.45,7.45,0,0,1,63.05,85a4.39,4.39,0,0,1-3.23-.55,4.62,4.62,0,0,1-1.88-2.6,4.38,4.38,0,0,1,.07-3,4.3,4.3,0,0,1,2-2.15A5,5,0,0,1,62.67,76.19Z"/></g></g></svg>