<svg xmlns="http://www.w3.org/2000/svg" viewBox="0 0 129.35 149.36"><defs><style>.cls-1,.cls-6{fill:#2f2d2b;}.cls-2{fill:none;stroke-width:0.5px;}.cls-2,.cls-4{stroke:#ddb281;stroke-miterlimit:10;}.cls-3,.cls-4,.cls-5{fill:#ddb281;}.cls-4{stroke-width:0.25px;}.cls-5{font-size:7.71px;font-family:MicrosoftJhengHeiLight, Microsoft JhengHei;letter-spacing:0.8em;}.cls-6{font-size:9.15px;font-family:FrenchScriptMT, French Script MT;}</style></defs><title>德國工藝-黑</title><g id="圖層_2" data-name="圖層 2"><g id="圖層_1-2" data-name="圖層 1"><polygon class="cls-1" points="129.35 112.02 129.35 37.34 64.67 0 0 37.34 0 112.02 64.67 149.36 129.35 112.02"/><polygon class="cls-2" points="124.61 109.48 124.61 39.69 64.18 4.8 3.74 39.69 3.74 109.48 64.18 144.37 124.61 109.48"/><polygon class="cls-3" points="79.91 35.41 49.44 35.41 49.44 8.71 64.67 0.04 79.91 8.71 79.91 35.41"/><polygon class="cls-3" points="73.64 56.67 56.61 56.67 49.44 36.74 79.91 36.74 73.64 56.67"/><rect class="cls-3" x="55.78" y="58.45" width="17.8" height="3.56"/><polygon class="cls-3" points="59.75 62.01 59.75 94.13 65.95 100.22 69.6 96.64 69.6 62.01 59.75 62.01"/><polygon class="cls-1" points="59.78 70.93 69.64 80.79 69.64 78.32 59.71 68.38 59.78 70.93"/><polygon class="cls-1" points="59.78 81.53 69.64 91.39 69.64 88.91 59.71 78.98 59.78 81.53"/><polygon class="cls-4" points="82.07 97.85 82.07 98.08 105.32 98.08 105.32 114.88 24.03 114.88 24.03 98.08 47.28 98.08 47.28 97.85 23.74 97.85 23.74 115.11 105.61 115.11 105.61 97.85 82.07 97.85"/><text class="cls-5" transform="translate(36.93 109.9)">德國工藝</text><text class="cls-6" transform="translate(53.07 28.13)">Germany</text><line class="cls-2" x1="35.77" y1="87.21" x2="93.41" y2="29.58"/></g></g></svg>