<svg xmlns="http://www.w3.org/2000/svg" xmlns:xlink="http://www.w3.org/1999/xlink" viewBox="0 0 200.05 97.38"><defs><style>.cls-1{fill:none;}.cls-2{clip-path:url(#clip-path);}.cls-3{fill:#deb383;}</style><clipPath id="clip-path" transform="translate(0.02 0.05)"><rect class="cls-1" width="200" height="97"/></clipPath></defs><g id="圖層_2" data-name="圖層 2"><g id="圖層_1-2" data-name="圖層 1"><g class="cls-2"><g id="Group_1017" data-name="Group 1017"><path id="Path_1350" data-name="Path 1350" class="cls-3" d="M57.07,17a38.72,38.72,0,0,1,0-4.57,2.74,2.74,0,0,1,1.18-1.76c3.1-1.74,6.09-1.38,8.91.92a7.35,7.35,0,0,0,8,1.22,2.72,2.72,0,0,0,1.8-3c-.13-3.14,0-6.29,0-9.77h7.4c13,0,26,.06,39,0,1.44,0,1.85.47,1.8,2.1-.1,3,0,6,0,9.24a25.17,25.17,0,0,1,2.76-1.1,6.81,6.81,0,0,1,6.3,1.34c3.1,2.51,6.28,3,9.71,1,.14-.08.34,0,.75,0,0,1.64.1,3.26-.06,4.86-.05.5-.71,1.06-1.2,1.33-3.07,1.7-6,1.27-8.73-1a6.92,6.92,0,0,0-7.26-1.37c-2.37.88-2.5,1.17-2.17,4.39.67-.3,1.3-.62,1.94-.86a6.6,6.6,0,0,1,6.68.85c3.2,2.56,6.45,3.34,10,1.25.14-.08.34,0,1,0-.2,1.92.18,4.32-.68,5.44-1.68,2.18-4.32,2.06-6.68,1.32a12.36,12.36,0,0,1-3.3-2,7.16,7.16,0,0,0-7.83-.66A2.23,2.23,0,0,0,125,28.51c.07,2.88,0,5.78,0,8.66,0,1.23-.31,1.72-1.42,1.72q-22.89-.15-45.79-.24a4.86,4.86,0,0,1-.84-.19V27.34L75.51,28c-2.51,1.13-5.1,1.35-7.36-.43-3.47-2.75-6.93-3.86-11.08-.87,0-2.08-.06-3.75,0-5.4,0-.39.54-.86.92-1.09a7.25,7.25,0,0,1,8.92.55c2.35,1.83,4.82,2.57,7.59,1.54,2.3-.86,2.5-1.22,2.31-3.87a35.86,35.86,0,0,1-6,.72,6.71,6.71,0,0,1-3.56-1.68c-3-2.4-6-2.81-9.2-.87a6.8,6.8,0,0,1-1,.34M121.79,3.72H80.12V35.05h41.67Z" transform="translate(0.02 0.05)"/><path id="Path_1351" data-name="Path 1351" class="cls-3" d="M39.23,60c2.36,0,4.49-.09,6.6.06.49,0,1.08.78,1.37,1.36,1.25,2.6,2.41,5.26,3.95,7.79v-9c1.36-.48,1.9,0,1.86,1.46,0,2,0,4,0,6.42,2-3.52,3.77-6.67,5.62-9.71,1.24-2,2.6-3.93,4-5.79a10.35,10.35,0,0,1,2.56-2.51,2.27,2.27,0,0,1,2.24-.2A3.09,3.09,0,0,1,68,52.44c-.48,2-1.25,3.84-1.9,5.75-.17.5-.35,1-.49,1.41.11.16.15.25.18.25,3.25-.71,4.25,2,5.32,4.64a24.64,24.64,0,0,0,2.67,5.05V63a9.43,9.43,0,0,1,0-1.84c.09-.42.55-1.1.72-1.06.41.11,1.06.58,1.07.91q.12,6.39,0,12.79c0,.33-.69.9-1.08.92a34.19,34.19,0,0,1-5.16,0c-.49,0-1.1-.7-1.38-1.26-1.28-2.66-2.47-5.39-4.06-8,0,2.49.06,5,0,7.46,0,.63-.46,1.72-.81,1.79-1.24.22-1-1-1-1.85,0-1.68,0-3.37,0-5.5-2.27,4-4.18,7.68-6.4,11.1-2.6,4-5.42,7.83-8.25,11.61a4.14,4.14,0,0,0-.64,4.52c.71,1.52,2.08,1.48,3.33,1.17a9.09,9.09,0,0,0,6.56-5.07,8.58,8.58,0,0,1,2.45-2.9c1.14-.9,2.64-1.13,3.57.22a4,4,0,0,1,.17,3.13,2.74,2.74,0,0,1-3.51,1.63,14.4,14.4,0,0,1-2.1-1.17c.28,1.46.2,2.8.72,3.31a3.35,3.35,0,0,0,2.75.79c3.7-.81,6.77-3.15,9.78-5.66a15.76,15.76,0,0,1,4.35-2.65c.68-.26,1.82.38,2.49,1a2.52,2.52,0,0,1,0,2.18,4.7,4.7,0,0,1-2.21,1.34c-.21.07-1-.82-.89-1A11.66,11.66,0,0,1,75.37,89c-1.91-.34-3.82,1.33-4,3.71-.15,2,1.2,3.28,3.52,3.19,4.41-.17,7.53-3.12,10.83-6.53l-3-.34c-.06-.26-.13-.51-.19-.76.58-.25,1.2-.79,1.73-.69,2.43.45,3.88-.78,4.92-3.21A30.92,30.92,0,0,1,91.57,80,5.81,5.81,0,0,1,93,78.82l.4.56c-1.36,2.53-2.73,5.05-4.32,8h4.58c.07.25.13.49.21.73a5.89,5.89,0,0,1-1.37.95,4.3,4.3,0,0,1-1.6,0c-2.8-.13-2.8-.14-3.88,2.89-.84,2.36-.1,3.72,2.1,3.88,4,.28,7.86-2.25,9.76-6.31-.25-.9-.75-2.06-.58-2.2a32.29,32.29,0,0,1,3.63-2.53v2.71h2c2.23,0,2.56.66,1.52,2.94A18.42,18.42,0,0,0,104.33,93a3,3,0,0,0,0,2,1.87,1.87,0,0,0,1.76.45,14.32,14.32,0,0,0,7.19-5.44c1.4-1.83,1.87-2.13,3.43-1.92-.35.52-.6.91-.87,1.27a20.06,20.06,0,0,0-1.62,2.17c-.65,1.21-1.18,2.86.11,3.62a3.12,3.12,0,0,0,3.16-.61c1.07-1.1,1.65-2.86,2.47-4.41l-2.72-1.37c.9-2.6,1.39-2.73,3.11-1.37a3.82,3.82,0,0,0,2.39.92c2.18-.16,4.35-.7,6.53-.9a12.63,12.63,0,0,1,3,.43c-.18,1.09-.34,2.18-.57,3.25a9.65,9.65,0,0,1-.67,1.51c2.49-1.59,4.64-3.13,6.92-4.35a10.63,10.63,0,0,1,3.35-.58c-.19,1.25-.44,2.5-.75,3.73A37.84,37.84,0,0,1,139.14,95l.44.62a12.61,12.61,0,0,0,3.19-1.28c2.47-1.87,4.82-4,7.23-5.94.52-.39,1.07-.76,1.63-1.1l.39.48L148.7,95l.42.55a9.41,9.41,0,0,0,2.54-.32,18.46,18.46,0,0,0,7.94-5.66c1.27-1.61,2.84-2.57,4.74-2.27a2.59,2.59,0,0,1,1.71,1.45,2.69,2.69,0,0,1-.59,2.15,3.42,3.42,0,0,1-2.08.71c-.2,0-.72-.84-.65-1A12.72,12.72,0,0,1,164,89a3.33,3.33,0,0,0-4,2.44,3.18,3.18,0,0,0-.09.87c-.24,5.76,3.42,2.24,5.77,2.54a4.38,4.38,0,0,1-4.18,2.29c-2-.07-3-1.6-3.47-3.75-1.8,1-3.48,2-5.2,2.88a9,9,0,0,1-2.37.81c-2.61.48-3.44-.55-2.79-3.83A23.68,23.68,0,0,1,139.26,97c-1.6.28-2.18-.93-1.55-2.74a38.46,38.46,0,0,0,1.7-5,37.68,37.68,0,0,0-3.32,2c-2.25,1.66-4.42,3.45-6.66,5.13a7.82,7.82,0,0,1-1.74.73l-.26-.5L131,88.73l-9.53,1.44a25.45,25.45,0,0,1-1.94,4,8.72,8.72,0,0,1-3,2.73c-2.26,1.1-3.8,0-4.65-2.83-1.7.92-3.37,1.92-5.11,2.73a4.2,4.2,0,0,1-2.27.28c-1.65-.21-2.48-1.76-1.92-3.57.42-1.34,1-2.6,1.6-4.09-1.89-.41-3.3-.41-4.52,1.65-2.3,3.89-5.55,6.08-9.74,6.23-3.57.12-5.05-1.76-4.4-5.46C83.29,93.31,81,95,78.6,96.38a8.27,8.27,0,0,1-3.64.77c-3.43.2-4.42-.73-5.15-4.58-2,1.2-4.08,2.45-6.16,3.58a9.28,9.28,0,0,1-2.72.91c-2.73.48-3.67-.1-5-2.82a42.43,42.43,0,0,1-5.16,2.52c-3.2,1.1-4.92-.11-5.83-3.86A16.32,16.32,0,0,1,42,95.24,15.24,15.24,0,0,1,36.85,97c-2.3.19-3.64-2.09-3.17-4.73.55-3.09,2.81-5.4,5.22-5.12.67.08,1.72.6,1.85,1.16a4.16,4.16,0,0,1-.47,2.81c-1.11,1.75-2.92,1.77-5.26.12,0,1.23-.32,2.5.09,3.18a3.17,3.17,0,0,0,2.39,1.3c3.23.08,7.2-3.71,8.21-7.25,1.16-4,2.54-8,3.83-11.94L50,75c-.27-.1-.44-.24-.58-.21-2.92.68-4.43-1-5.42-4a22.88,22.88,0,0,0-2.89-5.52v6.57a5.23,5.23,0,0,1,0,1.63,4.83,4.83,0,0,1-1,1.27c-.3-.4-.84-.8-.84-1.21-.07-4.39,0-8.78,0-13.52m27-9.22a22,22,0,0,0-3,3.22Q59,60.79,55,67.74c-1,1.79-2.27,3.58-2,6,0,.3-.3.69-.52,1a10.21,10.21,0,0,0-1.79,2.2c-1.14,2.87-2.12,5.81-3.12,8.75-.27.81-.4,1.69-.6,2.54l.59.35c3.23-5,6.71-9.78,9.6-15,2.23-4,5.65-7.65,4.84-13.16,2.41-.77,4.75-5.48,4.23-9.56m-27.7,37-2.2,2.1c.52.43,1.11,1.29,1.54,1.19.68-.16,1.25-1,1.87-1.48l-1.2-1.81m22.15.42L58.9,90c.41.45,1,1.37,1.21,1.27a7.09,7.09,0,0,0,1.77-1.5l-1.2-1.55" transform="translate(0.02 0.05)"/><path id="Path_1352" data-name="Path 1352" class="cls-3" d="M94.43,60c1.91,0,3.62-.09,5.32.07.38,0,1,.95,1,1.47.1,3.91,0,7.83.1,11.74,0,1-.3,1.43-1.22,1.5-5,.4-5,.43-5.19-5.38,0-.28,0-.54-.07-.8-2.62-1-3.1-.66-3.07,2.29,0,3.87,0,3.9-3.23,3.85-3.51-.05-3.17.41-3.19-3.63,0-3.16,0-6.32,0-9.48,0-1.27.34-1.78,1.41-1.66a6.61,6.61,0,0,0,.89,0c3.92,0,4,0,4.1,4.54,0,1.6.82,1.5,1.74,1.58s1.54-.27,1.45-1.6,0-2.73,0-4.5" transform="translate(0.02 0.05)"/><path id="Path_1353" data-name="Path 1353" class="cls-3" d="M184,60h3.45c3.08,0,6.17,0,9.26,0,1.39,0,2.64.36,2.94,2.27.45,3,0,4.08-2.22,5.05,3.58,1.3,2.06,4.62,2.61,7.41-1.94,0-3.71.07-5.47-.06-.35,0-.83-.75-1-1.26a8.7,8.7,0,0,1-.06-2c0-3.07-.12-3.16-3.07-2.64v6c-2,0-3.9,0-5.77,0-.24,0-.67-.62-.67-1-.05-4.45,0-8.9,0-13.68m6.68,1.92-.55.65a20,20,0,0,0,.93,3.81c.12.28,2,.09,2.13-.33a4.63,4.63,0,0,0,.07-3.26c-.36-.66-1.68-.6-2.58-.87" transform="translate(0.02 0.05)"/><path id="Path_1354" data-name="Path 1354" class="cls-3" d="M116.7,72.83a27.54,27.54,0,0,1,3.52,0c.45.06.84.67,1.25,1-.42.33-.84.93-1.27.94-2.9.07-5.82.07-8.72,0a1.74,1.74,0,0,1-1.22-1.16c-.09-4.44-.06-8.89-.06-13.65,3.52,0,6.94,0,10.36,0,.29,0,.58.66.87,1-.34.35-.66,1-1,1a36.48,36.48,0,0,1-3.77.05v4a29.48,29.48,0,0,1,3.64,0c.42,0,.79.68,1.18,1-.41.33-.81.9-1.25,1a29.37,29.37,0,0,1-3.51,0Z" transform="translate(0.02 0.05)"/><path id="Path_1355" data-name="Path 1355" class="cls-3" d="M170.5,66.06c1.22,0,2.43,0,3.65,0,.4,0,.76.58,1.14.89-.38.37-.74,1-1.15,1.08a29.8,29.8,0,0,1-3.66.05v4.63a33.7,33.7,0,0,1,3.76,0c.37,0,.7.64,1.06,1-.37.32-.72.92-1.09.92-3.26.08-6.52,0-10,0V60h3.48c2,0,4-.05,6.05.07.5,0,1,.63,1.45,1-.46.35-.89.93-1.37,1a23.14,23.14,0,0,1-3.33,0Z" transform="translate(0.02 0.05)"/><path id="Path_1356" data-name="Path 1356" class="cls-3" d="M25.45,62.09c-.05.92-.07,1.52-.13,2.12-.15,1.47.43,2,1.64,1.86a10.37,10.37,0,0,1,2.67.06c.32.06.58.64.87,1-.28.29-.52.74-.84.83a7.49,7.49,0,0,1-1.77.1c-3,0-2.47-.29-2.59,3.19,0,1.22.42,1.56,1.38,1.51a12.26,12.26,0,0,1,2.84,0c.37.07.67.7,1,1.08-.32.3-.64.85-1,.86-3.15.07-6.3.08-9.44,0-.33,0-.9-.84-.91-1.3-.08-4-.1-8,0-12a1.88,1.88,0,0,1,1.22-1.37c3-.13,5.94-.12,8.9,0,.41,0,.8.71,1.2,1.09-.37.31-.73.87-1.12.91-1.28.11-2.57,0-3.93,0" transform="translate(0.02 0.05)"/><path id="Path_1357" data-name="Path 1357" class="cls-3" d="M151.92,62.26c1.23,3,2.34,5.65,3.4,8.33,1,2.5.05,4.18-2.33,4.22s-4.62.06-6.93,0c-.42,0-.83-.64-1.24-1,.43-.33.83-.87,1.3-1a15.84,15.84,0,0,1,2.84,0c-1.18-2.86-2.2-5.44-3.29-8-1.32-3.1-.5-4.74,2.45-4.77,2.07,0,4.15-.07,6.22.05.48,0,.94.68,1.4,1a5.78,5.78,0,0,1-1.43,1,12.77,12.77,0,0,1-2.39.19" transform="translate(0.02 0.05)"/><path id="Path_1358" data-name="Path 1358" class="cls-3" d="M4,72.72C2.9,69.86,2,67.27.89,64.8-.4,61.94.41,59.57,3.64,59.94c1.59.18,3.21,0,4.8.1.63.05,1.7.55,1.75,1,.17,1.47-1,.93-1.64,1a17,17,0,0,1-1.89,0c1.1,2.75,2.07,5.21,3.07,7.66,1.28,3.12.3,5-2.64,5-2,0-3.92,0-5.87-.12-.43,0-.83-.63-1.24-1,.44-.3.85-.78,1.32-.86a16.6,16.6,0,0,1,2.73,0" transform="translate(0.02 0.05)"/><path id="Path_1359" data-name="Path 1359" class="cls-3" d="M136.2,74.7h-6.06c0-1-.11-2-.12-3-.05-3.35,0-6.71-.15-10.07,0-1.18.32-1.54,1.3-1.61,5-.38,5-.4,5,5.38,0,3,0,6,0,9.31" transform="translate(0.02 0.05)"/><path id="Path_1360" data-name="Path 1360" class="cls-3" d="M153,85.51c-.58-1-1.22-1.62-1.11-1.89a7.43,7.43,0,0,1,1.35-1.76c.38.42,1.13,1,1.06,1.24a9.77,9.77,0,0,1-1.3,2.4" transform="translate(0.02 0.05)"/><path id="Path_1361" data-name="Path 1361" class="cls-3" d="M119,5.48c.05.89.07,1.56.12,2.23.08,1-.3,1.52-1.23,1.44-.71-.06-1.42,0-2.14,0a5.09,5.09,0,0,0-4.85,2.8c-3,5-6.17,9.76-8.93,14.88-2.49,4.6-5.73,6.9-10.44,6.62-2.88-.18-5.78,0-8.63,0-.47-3.59-.47-3.7,2.25-3.57S90,28.75,91.56,26c3-5.26,6.2-10.39,9.28-15.61,2-3.33,4.65-5,8.13-4.92,3.31,0,6.62,0,10,0" transform="translate(0.02 0.05)"/></g></g></g></g></svg>