<?xml version="1.0" encoding="utf-8"?>
<!-- Generator: Adobe Illustrator 24.0.1, SVG Export Plug-In . SVG Version: 6.00 Build 0)  -->
<svg version="1.1" id="圖層_1" xmlns="http://www.w3.org/2000/svg" xmlns:xlink="http://www.w3.org/1999/xlink" x="0px" y="0px"
	 viewBox="0 0 60 60" style="enable-background:new 0 0 60 60;" xml:space="preserve">
<style type="text/css">
	.st0{fill:#D9AF80;}
</style>
<title>heart</title>
<g id="圖層_2_1_">
	<g id="圖層_1-2">
		<path class="st0" d="M30,0C13.4,0,0,13.4,0,30s13.4,30,30,30s30-13.4,30-30S46.6,0,30,0z M52.6,18.5c0.6,1.5,0.9,3,0.9,4.6v0.2
			c0,1-0.1,2-0.4,3c0,0,0,0.1,0,0.1l0,0.2c-0.5,1.8-1.2,3.6-2.2,5.2C50,33.1,49,34.4,48,35.6l0,0c-0.3,0.4-0.7,0.9-1.2,1.4
			c-0.2,0.3-0.5,0.5-0.7,0.8h0c-0.7,0.7-1.5,1.5-2.2,2.1h0.1c-2.3,2.1-4.7,4-7.3,5.7c-1.4,1-3.1,2.1-4.5,2.9S30,49.7,30,49.7l0,0
			l0,0c0,0-0.8-0.4-2.1-1.3s-3.1-1.9-4.5-2.9c-2.6-1.8-5.1-3.7-7.4-5.8l0,0l0,0l-0.1-0.1c-0.4-0.4-0.8-0.7-1.1-1.1
			c-1.4-1.3-2.7-2.8-3.9-4.3c0,0-1.4-2.1-1.5-2.1c-0.5-0.8-1-1.7-1.4-2.6L8,29.5c-0.4-0.9-0.8-1.9-1-2.9c0-0.1,0-0.1,0-0.2
			c0,0,0-0.1,0-0.1c-0.2-1-0.4-2-0.4-3v-0.2c0.1-5.1,3.1-9.7,7.8-11.7c0.2-0.1,0.4-0.1,0.6-0.2c5.3-2.1,11.3-0.5,14.8,4l0.3,0.2l0,0
			l0,0c2.5-3.2,6.3-5.1,10.3-5.1h0.1c1.8,0,3.5,0.4,5.2,1.1c2.3,0.8,4.4,2.5,6.1,5.4C52,17.4,52.3,17.9,52.6,18.5z"/>
	</g>
</g>
</svg>
