<?xml version="1.0" encoding="utf-8"?>
<!-- Generator: Adobe Illustrator 24.0.1, SVG Export Plug-In . SVG Version: 6.00 Build 0)  -->
<svg version="1.1" id="圖層_1" xmlns="http://www.w3.org/2000/svg" xmlns:xlink="http://www.w3.org/1999/xlink" x="0px" y="0px"
	 viewBox="0 0 60 60" style="enable-background:new 0 0 60 60;" xml:space="preserve">
<style type="text/css">
	.st0{fill:#D9AF80;}
</style>
<title>shopcar</title>
<g id="圖層_2_1_">
	<g id="圖層_1-2">
		<path class="st0" d="M30,0C13.4,0,0,13.4,0,30s13.4,30,30,30s30-13.4,30-30S46.6,0,30,0z M24.8,19.4c5.3,0,10.5,0,15.8,0
			c0.8-0.1,1.5,0.5,1.5,1.3c0,0.2,0,0.4-0.1,0.6c-1.4,5.1-2.6,10.2-4,15.3c-0.2,0.8-1,1.1-1.7,1H15.2c-0.8,0.1-1.5-0.4-1.6-1.2
			c-0.6-2.3-1.2-4.7-1.8-7c0.8,0.2,1.7,0.3,2.5,0.3h0.4c0,0,0,0,0,0.1c1.8,0.1,3.7,0.1,5.5,0c0-0.6,0-1.3-0.1-1.9
			c1.3-0.9,2.3-2,3.1-3.3c2,0,4.1,0,6.1,0c0.1-0.9,0.1-1.7,0.1-2.6c-1.7,0-3.4,0-5.1,0C24.7,21.3,24.8,20.4,24.8,19.4z M5.4,19.9
			c0-5,4-9,9-9s9,4,9,9s-4,9-9,9C9.5,28.9,5.4,24.9,5.4,19.9C5.4,19.9,5.4,19.9,5.4,19.9L5.4,19.9z M19.4,49
			c-1.8,0.3-3.5-0.8-3.8-2.6c-0.3-1.6,0.6-3.2,2.2-3.7c1.7-0.6,3.6,0.4,4.1,2.1c0,0.1,0.1,0.2,0.1,0.3C22.4,46.8,21.3,48.6,19.4,49
			C19.5,49,19.4,49,19.4,49z M35.1,49c-1.9,0-3.6-1.9-3.2-3.8c0.2-1.3,1.2-2.4,2.5-2.7c1.9-0.5,3.9,1.1,4,3c0.1,1.8-1.3,3.4-3.1,3.5
			C35.2,49.1,35.2,49.1,35.1,49L35.1,49z M53.7,20.3c-2.3,0.3-4.6-0.1-6.9,0.1c-1.9,6.6-3.7,13.3-5.5,19.9c-0.1,0.8-0.9,1.3-1.7,1.3
			c-8.9,0-17.7,0-26.6,0c-1.7,0-1.8-2.7-0.1-2.7c8.6-0.1,17.2,0,25.9,0c2-6.7,3.7-13.5,5.6-20.2c0.1-0.6,0.7-1,1.3-1
			c2.6,0,5.2,0,7.8,0C54.8,17.8,55,20,53.7,20.3L53.7,20.3z"/>
		<path class="st0" d="M15.5,32.8c0.1,0.7,0.3,1.4,0.5,2.1c1.5,0,3.1,0,4.6,0c0-0.7,0-1.4-0.2-2.1C18.8,32.8,17.2,32.8,15.5,32.8z"
			/>
		<path class="st0" d="M23.3,32.8c0,0.7,0,1.4,0.2,2.1c1.7,0,3.5,0,5.2,0c0-0.7,0.3-1.5,0-2.1C27,32.8,25.1,32.8,23.3,32.8z"/>
		<path class="st0" d="M23,27.6c0,0.8,0,1.6,0.1,2.3c2,0.2,4,0.2,6-0.1c0.1-0.7,0.1-1.4,0.1-2.2C27.2,27.5,25,27.6,23,27.6z"/>
		<path class="st0" d="M36.8,30c0.6-0.6,0.5-1.6,0.7-2.4c-1.8,0-3.7-0.1-5.5,0c-0.1,0.8-0.2,1.6-0.1,2.4C33.6,30,35.2,30.1,36.8,30z
			"/>
		<path class="st0" d="M38.3,24.8c0.3-0.8,0.5-1.7,0.7-2.6c-2.2,0-4.4,0-6.5,0c0,0.9-0.3,1.8,0,2.6C34.3,24.9,36.3,24.9,38.3,24.8z"
			/>
		<polygon class="st0" points="16,23.9 16,21.5 18.5,21.5 18.5,18.4 16,18.4 16,15.9 12.9,15.9 12.9,18.4 10.4,18.4 10.4,21.5 
			12.9,21.5 12.9,23.9 		"/>
		<path class="st0" d="M35.7,34.9c0.2-0.7,0.4-1.4,0.5-2c-1.5,0-3,0-4.6,0c-0.1,0.7-0.1,1.4-0.1,2.1C33,34.9,34.3,35,35.7,34.9z"/>
	</g>
</g>
</svg>
